<?xml version="1.0" encoding="utf-8"?>
<!-- Generator: Adobe Illustrator 25.4.1, SVG Export Plug-In . SVG Version: 6.00 Build 0)  -->
<svg version="1.1" id="Layer_1" xmlns="http://www.w3.org/2000/svg" xmlns:xlink="http://www.w3.org/1999/xlink" x="0px" y="0px"
	 viewBox="0 0 145.1 90" style="enable-background:new 0 0 145.1 90;" xml:space="preserve">
<style type="text/css">
	.st0{fill:#B4D64B;}
	.st1{fill:#0F464B;}
</style>
<g>
	<path class="st0" d="M3.8,31.1c0-0.4-0.3-0.7-0.6-0.7l0,0H0.7c-0.4,0-0.7,0.3-0.7,0.7l0,0v18.8h3.8V31.1z"/>
	<path class="st0" d="M12,31.1c0-0.4-0.3-0.7-0.6-0.7H8.8c-0.4,0-0.6,0.3-0.6,0.7v18.8H12V31.1z"/>
	<path class="st0" d="M20.1,31.1c0-0.4-0.3-0.7-0.6-0.7H17c-0.4,0-0.7,0.3-0.7,0.7v18.8h3.8C20.1,49.9,20.1,31.1,20.1,31.1z"/>
	<path class="st0" d="M28.3,17.6c0-0.4-0.3-0.7-0.7-0.7h-2.5c-0.4,0-0.6,0.3-0.6,0.7v32.3h3.8C28.3,49.9,28.3,17.6,28.3,17.6z"/>
	<path class="st0" d="M36.4,17.6c0-0.4-0.3-0.7-0.6-0.7h-2.5c-0.4,0-0.7,0.3-0.7,0.7v32.3h3.8V17.6z"/>
	<path class="st0" d="M44.6,17.6c0-0.4-0.3-0.7-0.6-0.7h-2.5c-0.4,0-0.7,0.3-0.7,0.7v32.3h3.8V17.6z"/>
	<path class="st0" d="M52.7,24.7c0-0.4-0.3-0.7-0.7-0.7h-2.5c-0.4,0-0.6,0.3-0.6,0.7v25.2h3.8V24.7z"/>
	<path class="st0" d="M60.9,24.7c0-0.4-0.3-0.7-0.6-0.7h-2.5c-0.4,0-0.7,0.3-0.7,0.7v25.2h3.8V24.7z"/>
	<path class="st0" d="M69.1,24.7c0-0.4-0.3-0.7-0.6-0.7H66c-0.4,0-0.6,0.3-0.6,0.7v25.2h3.8L69.1,24.7z"/>
	<path class="st0" d="M77.2,0.7c0-0.4-0.3-0.7-0.7-0.7H74c-0.4,0-0.6,0.3-0.6,0.7V50h3.8C77.2,50,77.2,0.7,77.2,0.7z"/>
	<path class="st0" d="M85.4,0.7c0-0.4-0.3-0.7-0.6-0.7h-2.5c-0.4,0-0.7,0.3-0.7,0.7V50h3.8C85.4,50,85.4,0.7,85.4,0.7z"/>
	<path class="st0" d="M93.5,0.7c0-0.4-0.3-0.7-0.6-0.7h-2.5c-0.4,0-0.6,0.3-0.6,0.7V50h3.8V0.7H93.5z"/>
	<path class="st0" d="M101.7,13.5c0-0.4-0.3-0.7-0.7-0.7h-2.5c-0.4,0-0.6,0.3-0.6,0.7v36.4h3.8L101.7,13.5z"/>
	<path class="st0" d="M109.8,13.5c0-0.4-0.3-0.7-0.6-0.7h-2.5c-0.4,0-0.7,0.3-0.7,0.7v36.4h3.8C109.8,49.9,109.8,13.5,109.8,13.5z"
		/>
	<path class="st0" d="M118,13.5c0-0.4-0.3-0.7-0.6-0.7l0,0h-2.5c-0.4,0-0.6,0.3-0.6,0.7v36.4h3.8V13.5H118z"/>
	<path class="st0" d="M126.2,31.1c0-0.3-0.3-0.6-0.6-0.6H123c-0.4,0-0.6,0.3-0.6,0.7V50h3.8L126.2,31.1z"/>
	<path class="st0" d="M134.3,31.1c0-0.4-0.3-0.7-0.6-0.7h-2.5c-0.4,0-0.6,0.3-0.6,0.7v18.8h3.8L134.3,31.1z"/>
	<path class="st0" d="M142.5,31.1c0-0.4-0.3-0.7-0.7-0.7h-2.5c-0.4,0-0.6,0.3-0.6,0.7v18.8h3.8V31.1z"/>
	<path class="st1" d="M43.7,57.4c-8.1,0-12.8,3.9-12.8,10.7v11.1c0,6.8,4.6,10.7,12.8,10.7S56.5,86,56.5,79.2V68.1
		C56.4,61.3,51.8,57.4,43.7,57.4 M51.5,68.2v10.9c0,4.2-2.6,6.4-7.8,6.4s-7.8-2.2-7.8-6.4V68.2c0-4.2,2.6-6.4,7.8-6.4
		S51.5,64,51.5,68.2"/>
	<path class="st1" d="M99.9,57.4c-8.1,0-12.8,3.9-12.8,10.7v11.1c0,6.8,4.6,10.7,12.8,10.7s12.8-3.9,12.8-10.7V68.1
		C112.7,61.3,108,57.4,99.9,57.4 M107.7,68.2v10.9c0,4.2-2.6,6.4-7.8,6.4s-7.8-2.2-7.8-6.4V68.2c0-4.2,2.6-6.4,7.8-6.4
		S107.7,64,107.7,68.2"/>
	<path class="st1" d="M82.9,58H63.1c-0.4,0-0.6,0.3-0.6,0.7v30.1c0,0.4,0.3,0.6,0.6,0.6h3.7c0.4,0,0.6-0.3,0.6-0.6V77h14.4
		c0.4,0,0.6-0.3,0.6-0.6l0,0v-3.2l0,0c0-0.4-0.3-0.6-0.6-0.6H67.4v-10h15.5c0.4,0,0.6-0.3,0.6-0.6v-3.2C83.5,58.3,83.2,58,82.9,58"
		/>
	<path class="st1" d="M144.8,89.3c-0.1,0.1-0.2,0.1-0.3,0.1h-4.2c-0.2,0-0.4-0.1-0.5-0.3l-8.4-10.6h-8.2v10.3c0,0.4-0.3,0.6-0.6,0.6
		H119c-0.4,0-0.7-0.3-0.7-0.6l0,0V58.6c0-0.4,0.3-0.7,0.6-0.7l0,0h12.8c7,0,10.3,2.8,10.3,8.8v0.9c0,4.4-1.7,8.9-5.4,10.1l8.4,10.6
		C145.1,88.7,145.1,89.1,144.8,89.3L144.8,89.3 M137,66.8c0-3.3-1.3-4.3-5.5-4.3h-8.3V74h8.3c4.1,0,5.5-1.1,5.5-4.3V66.8z"/>
	<path class="st1" d="M24.4,58h-3.7c-0.4,0-0.6,0.3-0.6,0.7v12.5H5V58.6C5,58.3,4.7,58,4.3,58H0.7C0.3,58,0,58.3,0,58.6l0,0v30.1
		c0,0.4,0.3,0.6,0.7,0.6h3.7C4.8,89.3,5,89,5,88.7V75.6h15.1v13.2c0,0.4,0.3,0.6,0.6,0.6h3.7c0.4,0,0.6-0.3,0.6-0.6V58.6
		C25,58.3,24.8,58,24.4,58"/>
</g>
</svg>
